<svg width="1200" height="900" viewBox="0 0 1200 900" fill="none" xmlns="http://www.w3.org/2000/svg">
  <defs>
    <linearGradient id="bg" x1="0" y1="0" x2="1" y2="1">
      <stop offset="0" stop-color="#0f3d2e"/>
      <stop offset="0.55" stop-color="#1f7a5c"/>
      <stop offset="1" stop-color="#4caf50"/>
    </linearGradient>
    <radialGradient id="mint" cx="0" cy="0" r="1" gradientUnits="userSpaceOnUse" gradientTransform="translate(350 250) rotate(45) scale(520 420)">
      <stop offset="0" stop-color="#c9f7e7" stop-opacity="0.75"/>
      <stop offset="1" stop-color="#c9f7e7" stop-opacity="0"/>
    </radialGradient>
    <radialGradient id="glow" cx="0" cy="0" r="1" gradientUnits="userSpaceOnUse" gradientTransform="translate(820 560) rotate(35) scale(560 460)">
      <stop offset="0" stop-color="#ffffff" stop-opacity="0.22"/>
      <stop offset="1" stop-color="#ffffff" stop-opacity="0"/>
    </radialGradient>
    <filter id="blur" x="-80" y="-80" width="1360" height="1060" filterUnits="userSpaceOnUse" color-interpolation-filters="sRGB">
      <feGaussianBlur stdDeviation="22"/>
    </filter>
    <filter id="soft" x="-40" y="-40" width="1280" height="980" filterUnits="userSpaceOnUse" color-interpolation-filters="sRGB">
      <feGaussianBlur stdDeviation="10"/>
    </filter>
  </defs>

  <rect width="1200" height="900" rx="48" fill="url(#bg)"/>

  <g filter="url(#blur)" opacity="0.95">
    <path d="M160 120C250 20 430 30 520 140C610 250 540 410 410 440C280 470 120 360 120 240C120 190 130 150 160 120Z" fill="url(#mint)"/>
    <path d="M840 90C980 70 1100 170 1080 320C1060 470 900 520 780 470C660 420 610 270 690 170C730 120 780 100 840 90Z" fill="url(#glow)"/>
    <path d="M290 650C390 540 560 540 640 640C720 740 650 860 520 880C390 900 230 820 220 710C215 680 245 675 290 650Z" fill="#c9f7e7" fill-opacity="0.22"/>
  </g>

  <g filter="url(#soft)" opacity="0.9">
    <circle cx="270" cy="320" r="42" fill="#c9f7e7" fill-opacity="0.32"/>
    <circle cx="940" cy="350" r="56" fill="#ffffff" fill-opacity="0.14"/>
    <circle cx="860" cy="690" r="36" fill="#c9f7e7" fill-opacity="0.22"/>
  </g>

  <g opacity="0.95">
    <path d="M310 520C390 480 520 470 610 520C700 570 740 660 700 730C660 800 540 820 430 780C320 740 250 630 270 570C280 545 295 530 310 520Z" fill="#071e17" fill-opacity="0.18"/>
    <path d="M360 520C430 492 522 492 590 520C660 548 700 620 672 680C644 740 550 760 462 730C374 700 320 635 338 585C346 560 354 538 360 520Z" fill="#ffffff" fill-opacity="0.08"/>

    <path d="M420 602H610" stroke="#c9f7e7" stroke-opacity="0.6" stroke-width="10" stroke-linecap="round"/>
    <path d="M450 646H570" stroke="#ffffff" stroke-opacity="0.45" stroke-width="10" stroke-linecap="round"/>
  </g>

  <g opacity="0.7">
    <path d="M180 780C320 720 480 710 640 740" stroke="#ffffff" stroke-opacity="0.16" stroke-width="2"/>
    <path d="M720 200C860 160 980 170 1090 240" stroke="#ffffff" stroke-opacity="0.14" stroke-width="2"/>
  </g>
</svg>
